<svg viewBox="0 0 2000 1400" xmlns="http://www.w3.org/2000/svg"><mask id="b" x="0" y="0" width="2000" height="1400"><path fill="url(#a)" d="M0 0h2000v1400H0z"/></mask><path fill="#fff" d="M0 0h2000v1400H0z"/><g style="transform-origin:center center" stroke="#acb6bc" stroke-width="1.6" mask="url(#b)"><path fill="none" d="M0 0h206.15v206.15H0zM206.15 0H412.3v206.15H206.15zM412.3 0h206.15v206.15H412.3z" stroke-width="2.4800000000000004"/><path fill="#acb6bc9a" d="M618.45 0H824.6v206.15H618.45z" stroke-width="2.4800000000000004"/><path fill="none" d="M824.6 0h206.15v206.15H824.6z" stroke-width="2.4800000000000004"/><path fill="#acb6bc96" d="M1236.9 0h206.15v206.15H1236.9z" stroke-width="2.4800000000000004"/><path fill="none" d="M1443.05 0h206.15v206.15h-206.15z" stroke-width="2.4800000000000004"/><path fill="#acb6bcd7" d="M1855.35 0h206.15v206.15h-206.15z" stroke-width="2.4800000000000004"/><path fill="none" d="M2267.65 0h206.15v206.15h-206.15z" stroke-width="2.4800000000000004"/><path fill="#acb6bcbe" d="M2886.1 0h206.15v206.15H2886.1z" stroke-width="2.4800000000000004"/><path fill="none" d="M0 206.15h206.15V412.3H0zM824.6 206.15h206.15V412.3H824.6zM1236.9 206.15h206.15V412.3H1236.9z" stroke-width="2.4800000000000004"/><path fill="#acb6bcb3" d="M1443.05 206.15h206.15V412.3h-206.15z" stroke-width="2.4800000000000004"/><path fill="none" d="M1649.2 206.15h206.15V412.3H1649.2zM2061.5 206.15h206.15V412.3H2061.5zM2473.8 206.15h206.15V412.3H2473.8z" stroke-width="2.4800000000000004"/><path fill="none" d="M2679.95 206.15h206.15V412.3h-206.15z" stroke-width="2.4800000000000004"/><path fill="#acb6bc31" d="M206.15 412.3H412.3v206.15H206.15z" stroke-width="2.4800000000000004"/><path fill="#acb6bc1a" d="M412.3 412.3h206.15v206.15H412.3z" stroke-width="2.4800000000000004"/><path fill="none" d="M618.45 412.3H824.6v206.15H618.45z" stroke-width="2.4800000000000004"/><path fill="#acb6bcb5" d="M824.6 412.3h206.15v206.15H824.6z" stroke-width="2.4800000000000004"/><path fill="#acb6bcfe" d="M1236.9 412.3h206.15v206.15H1236.9z" stroke-width="2.4800000000000004"/><path fill="#acb6bc67" d="M1443.05 412.3h206.15v206.15h-206.15z" stroke-width="2.4800000000000004"/><path fill="none" d="M1649.2 412.3h206.15v206.15H1649.2z" stroke-width="2.4800000000000004"/><path fill="none" d="M1855.35 412.3h206.15v206.15h-206.15zM2061.5 412.3h206.15v206.15H2061.5zM2267.65 412.3h206.15v206.15h-206.15zM2473.8 412.3h206.15v206.15H2473.8zM0 618.45h206.15V824.6H0zM206.15 618.45H412.3V824.6H206.15z" stroke-width="2.4800000000000004"/><path fill="#acb6bcae" d="M412.3 618.45h206.15V824.6H412.3z" stroke-width="2.4800000000000004"/><path fill="#acb6bc39" d="M618.45 618.45H824.6V824.6H618.45z" stroke-width="2.4800000000000004"/><path fill="none" d="M824.6 618.45h206.15V824.6H824.6z" stroke-width="2.4800000000000004"/><path fill="#acb6bc25" d="M1236.9 618.45h206.15V824.6H1236.9z" stroke-width="2.4800000000000004"/><path fill="none" d="M1443.05 618.45h206.15V824.6h-206.15zM1649.2 618.45h206.15V824.6H1649.2z" stroke-width="2.4800000000000004"/><path fill="none" d="M1855.35 618.45h206.15V824.6h-206.15zM2061.5 618.45h206.15V824.6H2061.5z" stroke-width="2.4800000000000004"/><path fill="#acb6bc6a" d="M2267.65 618.45h206.15V824.6h-206.15z" stroke-width="2.4800000000000004"/><path fill="none" d="M2473.8 618.45h206.15V824.6H2473.8zM2886.1 618.45h206.15V824.6H2886.1zM206.15 824.6H412.3v206.15H206.15zM412.3 824.6h206.15v206.15H412.3z" stroke-width="2.4800000000000004"/><path fill="#acb6bc84" d="M618.45 824.6H824.6v206.15H618.45z" stroke-width="2.4800000000000004"/><path fill="none" d="M824.6 824.6h206.15v206.15H824.6zM1030.75 824.6h206.15v206.15h-206.15z" stroke-width="2.4800000000000004"/><path fill="#acb6bcc8" d="M1649.2 824.6h206.15v206.15H1649.2z" stroke-width="2.4800000000000004"/><path fill="none" d="M1855.35 824.6h206.15v206.15h-206.15z" stroke-width="2.4800000000000004"/><path fill="#acb6bcaa" d="M2061.5 824.6h206.15v206.15H2061.5z" stroke-width="2.4800000000000004"/><path fill="none" d="M2267.65 824.6h206.15v206.15h-206.15zM2679.95 824.6h206.15v206.15h-206.15zM0 1030.75h206.15v206.15H0z" stroke-width="2.4800000000000004"/><path fill="#acb6bc3e" d="M206.15 1030.75H412.3v206.15H206.15z" stroke-width="2.4800000000000004"/><path fill="#acb6bc1e" d="M618.45 1030.75H824.6v206.15H618.45z" stroke-width="2.4800000000000004"/><path fill="none" d="M824.6 1030.75h206.15v206.15H824.6zM1030.75 1030.75h206.15v206.15h-206.15zM1443.05 1030.75h206.15v206.15h-206.15zM1855.35 1030.75h206.15v206.15h-206.15zM2061.5 1030.75h206.15v206.15H2061.5zM2267.65 1030.75h206.15v206.15h-206.15zM2473.8 1030.75h206.15v206.15H2473.8z" stroke-width="2.4800000000000004"/><path fill="#acb6bcfb" d="M2886.1 1030.75h206.15v206.15H2886.1z" stroke-width="2.4800000000000004"/><path fill="none" d="M0 1236.9h206.15v206.15H0zM206.15 1236.9H412.3v206.15H206.15zM824.6 1236.9h206.15v206.15H824.6z" stroke-width="2.4800000000000004"/><path fill="#acb6bc09" d="M1030.75 1236.9h206.15v206.15h-206.15z" stroke-width="2.4800000000000004"/><path fill="none" d="M1236.9 1236.9h206.15v206.15H1236.9z" stroke-width="2.4800000000000004"/><path fill="#acb6bc81" d="M1443.05 1236.9h206.15v206.15h-206.15z" stroke-width="2.4800000000000004"/><path fill="none" d="M1649.2 1236.9h206.15v206.15H1649.2z" stroke-width="2.4800000000000004"/><path fill="#acb6bc93" d="M1855.35 1236.9h206.15v206.15h-206.15z" stroke-width="2.4800000000000004"/><path fill="#acb6bcf1" d="M2267.65 1236.9h206.15v206.15h-206.15z" stroke-width="2.4800000000000004"/><path fill="none" d="M2473.8 1236.9h206.15v206.15H2473.8z" stroke-width="2.4800000000000004"/><path fill="#acb6bc3a" d="M2679.95 1236.9h206.15v206.15h-206.15z" stroke-width="2.4800000000000004"/><path fill="none" d="M0 1443.05h206.15v206.15H0zM412.3 1443.05h206.15v206.15H412.3zM618.45 1443.05H824.6v206.15H618.45z" stroke-width="2.4800000000000004"/><path fill="#acb6bc42" d="M824.6 1443.05h206.15v206.15H824.6z" stroke-width="2.4800000000000004"/><path fill="none" d="M1030.75 1443.05h206.15v206.15h-206.15zM1236.9 1443.05h206.15v206.15H1236.9z" stroke-width="2.4800000000000004"/><path fill="none" d="M1443.05 1443.05h206.15v206.15h-206.15zM1855.35 1443.05h206.15v206.15h-206.15zM2061.5 1443.05h206.15v206.15H2061.5z" stroke-width="2.4800000000000004"/><path fill="#acb6bc3f" d="M2267.65 1443.05h206.15v206.15h-206.15z" stroke-width="2.4800000000000004"/><path fill="#acb6bc43" d="M2679.95 1443.05h206.15v206.15h-206.15z" stroke-width="2.4800000000000004"/><path fill="#acb6bc44" d="M2886.1 1443.05h206.15v206.15H2886.1z" stroke-width="2.4800000000000004"/><path fill="none" d="M412.3 1649.2h206.15v206.15H412.3zM824.6 1649.2h206.15v206.15H824.6zM1030.75 1649.2h206.15v206.15h-206.15zM1236.9 1649.2h206.15v206.15H1236.9z" stroke-width="2.4800000000000004"/><path fill="none" d="M1443.05 1649.2h206.15v206.15h-206.15zM1649.2 1649.2h206.15v206.15H1649.2z" stroke-width="2.4800000000000004"/><path fill="#acb6bc58" d="M2061.5 1649.2h206.15v206.15H2061.5z" stroke-width="2.4800000000000004"/><path fill="#acb6bc69" d="M2267.65 1649.2h206.15v206.15h-206.15z" stroke-width="2.4800000000000004"/><path fill="none" d="M2473.8 1649.2h206.15v206.15H2473.8z" stroke-width="2.4800000000000004"/><path fill="#acb6bc6d" d="M2886.1 1649.2h206.15v206.15H2886.1z" stroke-width="2.4800000000000004"/><path fill="#acb6bc5c" d="M0 1855.35h206.15v206.15H0z" stroke-width="2.4800000000000004"/><path fill="#acb6bc80" d="M206.15 1855.35H412.3v206.15H206.15z" stroke-width="2.4800000000000004"/><path fill="none" d="M412.3 1855.35h206.15v206.15H412.3zM824.6 1855.35h206.15v206.15H824.6zM1030.75 1855.35h206.15v206.15h-206.15z" stroke-width="2.4800000000000004"/><path fill="#acb6bc09" d="M1236.9 1855.35h206.15v206.15H1236.9z" stroke-width="2.4800000000000004"/><path fill="none" d="M1443.05 1855.35h206.15v206.15h-206.15zM1649.2 1855.35h206.15v206.15H1649.2z" stroke-width="2.4800000000000004"/><path fill="#acb6bc90" d="M1855.35 1855.35h206.15v206.15h-206.15z" stroke-width="2.4800000000000004"/><path fill="none" d="M2473.8 1855.35h206.15v206.15H2473.8z" stroke-width="2.4800000000000004"/><path fill="#acb6bcef" d="M2679.95 1855.35h206.15v206.15h-206.15z" stroke-width="2.4800000000000004"/><path fill="#acb6bc89" d="M2886.1 1855.35h206.15v206.15H2886.1z" stroke-width="2.4800000000000004"/><path fill="none" d="M0 2061.5h206.15v206.15H0zM206.15 2061.5H412.3v206.15H206.15zM412.3 2061.5h206.15v206.15H412.3z" stroke-width="2.4800000000000004"/><path fill="#acb6bc33" d="M618.45 2061.5H824.6v206.15H618.45z" stroke-width="2.4800000000000004"/><path fill="none" d="M1030.75 2061.5h206.15v206.15h-206.15zM1443.05 2061.5h206.15v206.15h-206.15z" stroke-width="2.4800000000000004"/><path fill="#acb6bced" d="M1649.2 2061.5h206.15v206.15H1649.2z" stroke-width="2.4800000000000004"/><path fill="none" d="M1855.35 2061.5h206.15v206.15h-206.15zM2061.5 2061.5h206.15v206.15H2061.5zM2473.8 2061.5h206.15v206.15H2473.8z" stroke-width="2.4800000000000004"/><path fill="#acb6bccb" d="M2679.95 2061.5h206.15v206.15h-206.15z" stroke-width="2.4800000000000004"/><path fill="#acb6bc3e" d="M2886.1 2061.5h206.15v206.15H2886.1z" stroke-width="2.4800000000000004"/></g><defs><radialGradient id="a"><stop offset="0" stop-color="#fff"/><stop offset="1" stop-color="#fff" stop-opacity="0"/></radialGradient></defs></svg>